<?xml version="1.0" encoding="utf-8" standalone="no"?>
<!DOCTYPE svg PUBLIC "-//W3C//DTD SVG 1.1//EN"
  "http://www.w3.org/Graphics/SVG/1.1/DTD/svg11.dtd">
<svg xmlns:xlink="http://www.w3.org/1999/xlink" width="720pt" height="936pt" viewBox="0 0 720 936" xmlns="http://www.w3.org/2000/svg" version="1.1">
 <metadata>
  <rdf:RDF xmlns:dc="http://purl.org/dc/elements/1.1/" xmlns:cc="http://creativecommons.org/ns#" xmlns:rdf="http://www.w3.org/1999/02/22-rdf-syntax-ns#">
   <cc:Work>
    <dc:type rdf:resource="http://purl.org/dc/dcmitype/StillImage"/>
    <dc:date>2022-07-27T15:00:31.033236</dc:date>
    <dc:format>image/svg+xml</dc:format>
    <dc:creator>
     <cc:Agent>
      <dc:title>Matplotlib v3.5.1, https://matplotlib.org/</dc:title>
     </cc:Agent>
    </dc:creator>
   </cc:Work>
  </rdf:RDF>
 </metadata>
 <defs>
  <style type="text/css">*{stroke-linejoin: round; stroke-linecap: butt}</style>
 </defs>
 <g id="figure_1">
  <g id="patch_1">
   <path d="M 0 936 
L 720 936 
L 720 0 
L 0 0 
z
" style="fill: #ffffff"/>
  </g>
  <g id="axes_1">
   <g id="patch_2">
    <path d="M 431.630001 738.663996 
Q 459.239166 697.060251 487.466539 654.524937 
" style="fill: none; stroke: #000000; stroke-linecap: round"/>
    <path d="M 437.672782 735.194038 
L 431.630001 738.663996 
L 432.479704 731.747796 
" style="fill: none; stroke: #000000; stroke-linecap: round"/>
   </g>
   <g id="text_1">
    <g id="patch_3">
     <path d="M 348.91878 804.200195 
L 468.795506 804.200195 
L 468.795506 741.759805 
L 348.91878 741.759805 
z
" style="fill: #e58139; stroke: #000000; stroke-linejoin: miter"/>
    </g>
    <!-- gini = 0.0 -->
    <g transform="translate(370.775302 759.831759)scale(0.155814 -0.155814)">
     <defs>
      <path id="DejaVuSans-67" d="M 2906 1791 
Q 2906 2416 2648 2759 
Q 2391 3103 1925 3103 
Q 1463 3103 1205 2759 
Q 947 2416 947 1791 
Q 947 1169 1205 825 
Q 1463 481 1925 481 
Q 2391 481 2648 825 
Q 2906 1169 2906 1791 
z
M 3481 434 
Q 3481 -459 3084 -895 
Q 2688 -1331 1869 -1331 
Q 1566 -1331 1297 -1286 
Q 1028 -1241 775 -1147 
L 775 -588 
Q 1028 -725 1275 -790 
Q 1522 -856 1778 -856 
Q 2344 -856 2625 -561 
Q 2906 -266 2906 331 
L 2906 616 
Q 2728 306 2450 153 
Q 2172 0 1784 0 
Q 1141 0 747 490 
Q 353 981 353 1791 
Q 353 2603 747 3093 
Q 1141 3584 1784 3584 
Q 2172 3584 2450 3431 
Q 2728 3278 2906 2969 
L 2906 3500 
L 3481 3500 
L 3481 434 
z
" transform="scale(0.015625)"/>
      <path id="DejaVuSans-69" d="M 603 3500 
L 1178 3500 
L 1178 0 
L 603 0 
L 603 3500 
z
M 603 4863 
L 1178 4863 
L 1178 4134 
L 603 4134 
L 603 4863 
z
" transform="scale(0.015625)"/>
      <path id="DejaVuSans-6e" d="M 3513 2113 
L 3513 0 
L 2938 0 
L 2938 2094 
Q 2938 2591 2744 2837 
Q 2550 3084 2163 3084 
Q 1697 3084 1428 2787 
Q 1159 2491 1159 1978 
L 1159 0 
L 581 0 
L 581 3500 
L 1159 3500 
L 1159 2956 
Q 1366 3272 1645 3428 
Q 1925 3584 2291 3584 
Q 2894 3584 3203 3211 
Q 3513 2838 3513 2113 
z
" transform="scale(0.015625)"/>
      <path id="DejaVuSans-20" transform="scale(0.015625)"/>
      <path id="DejaVuSans-3d" d="M 678 2906 
L 4684 2906 
L 4684 2381 
L 678 2381 
L 678 2906 
z
M 678 1631 
L 4684 1631 
L 4684 1100 
L 678 1100 
L 678 1631 
z
" transform="scale(0.015625)"/>
      <path id="DejaVuSans-30" d="M 2034 4250 
Q 1547 4250 1301 3770 
Q 1056 3291 1056 2328 
Q 1056 1369 1301 889 
Q 1547 409 2034 409 
Q 2525 409 2770 889 
Q 3016 1369 3016 2328 
Q 3016 3291 2770 3770 
Q 2525 4250 2034 4250 
z
M 2034 4750 
Q 2819 4750 3233 4129 
Q 3647 3509 3647 2328 
Q 3647 1150 3233 529 
Q 2819 -91 2034 -91 
Q 1250 -91 836 529 
Q 422 1150 422 2328 
Q 422 3509 836 4129 
Q 1250 4750 2034 4750 
z
" transform="scale(0.015625)"/>
      <path id="DejaVuSans-2e" d="M 684 794 
L 1344 794 
L 1344 0 
L 684 0 
L 684 794 
z
" transform="scale(0.015625)"/>
     </defs>
     <use xlink:href="#DejaVuSans-67"/>
     <use xlink:href="#DejaVuSans-69" x="63.476562"/>
     <use xlink:href="#DejaVuSans-6e" x="91.259766"/>
     <use xlink:href="#DejaVuSans-69" x="154.638672"/>
     <use xlink:href="#DejaVuSans-20" x="182.421875"/>
     <use xlink:href="#DejaVuSans-3d" x="214.208984"/>
     <use xlink:href="#DejaVuSans-20" x="297.998047"/>
     <use xlink:href="#DejaVuSans-30" x="329.785156"/>
     <use xlink:href="#DejaVuSans-2e" x="393.408203"/>
     <use xlink:href="#DejaVuSans-30" x="425.195312"/>
    </g>
    <!-- samples = 6 -->
    <g transform="translate(360.03633 777.279484)scale(0.155814 -0.155814)">
     <defs>
      <path id="DejaVuSans-73" d="M 2834 3397 
L 2834 2853 
Q 2591 2978 2328 3040 
Q 2066 3103 1784 3103 
Q 1356 3103 1142 2972 
Q 928 2841 928 2578 
Q 928 2378 1081 2264 
Q 1234 2150 1697 2047 
L 1894 2003 
Q 2506 1872 2764 1633 
Q 3022 1394 3022 966 
Q 3022 478 2636 193 
Q 2250 -91 1575 -91 
Q 1294 -91 989 -36 
Q 684 19 347 128 
L 347 722 
Q 666 556 975 473 
Q 1284 391 1588 391 
Q 1994 391 2212 530 
Q 2431 669 2431 922 
Q 2431 1156 2273 1281 
Q 2116 1406 1581 1522 
L 1381 1569 
Q 847 1681 609 1914 
Q 372 2147 372 2553 
Q 372 3047 722 3315 
Q 1072 3584 1716 3584 
Q 2034 3584 2315 3537 
Q 2597 3491 2834 3397 
z
" transform="scale(0.015625)"/>
      <path id="DejaVuSans-61" d="M 2194 1759 
Q 1497 1759 1228 1600 
Q 959 1441 959 1056 
Q 959 750 1161 570 
Q 1363 391 1709 391 
Q 2188 391 2477 730 
Q 2766 1069 2766 1631 
L 2766 1759 
L 2194 1759 
z
M 3341 1997 
L 3341 0 
L 2766 0 
L 2766 531 
Q 2569 213 2275 61 
Q 1981 -91 1556 -91 
Q 1019 -91 701 211 
Q 384 513 384 1019 
Q 384 1609 779 1909 
Q 1175 2209 1959 2209 
L 2766 2209 
L 2766 2266 
Q 2766 2663 2505 2880 
Q 2244 3097 1772 3097 
Q 1472 3097 1187 3025 
Q 903 2953 641 2809 
L 641 3341 
Q 956 3463 1253 3523 
Q 1550 3584 1831 3584 
Q 2591 3584 2966 3190 
Q 3341 2797 3341 1997 
z
" transform="scale(0.015625)"/>
      <path id="DejaVuSans-6d" d="M 3328 2828 
Q 3544 3216 3844 3400 
Q 4144 3584 4550 3584 
Q 5097 3584 5394 3201 
Q 5691 2819 5691 2113 
L 5691 0 
L 5113 0 
L 5113 2094 
Q 5113 2597 4934 2840 
Q 4756 3084 4391 3084 
Q 3944 3084 3684 2787 
Q 3425 2491 3425 1978 
L 3425 0 
L 2847 0 
L 2847 2094 
Q 2847 2600 2669 2842 
Q 2491 3084 2119 3084 
Q 1678 3084 1418 2786 
Q 1159 2488 1159 1978 
L 1159 0 
L 581 0 
L 581 3500 
L 1159 3500 
L 1159 2956 
Q 1356 3278 1631 3431 
Q 1906 3584 2284 3584 
Q 2666 3584 2933 3390 
Q 3200 3197 3328 2828 
z
" transform="scale(0.015625)"/>
      <path id="DejaVuSans-70" d="M 1159 525 
L 1159 -1331 
L 581 -1331 
L 581 3500 
L 1159 3500 
L 1159 2969 
Q 1341 3281 1617 3432 
Q 1894 3584 2278 3584 
Q 2916 3584 3314 3078 
Q 3713 2572 3713 1747 
Q 3713 922 3314 415 
Q 2916 -91 2278 -91 
Q 1894 -91 1617 61 
Q 1341 213 1159 525 
z
M 3116 1747 
Q 3116 2381 2855 2742 
Q 2594 3103 2138 3103 
Q 1681 3103 1420 2742 
Q 1159 2381 1159 1747 
Q 1159 1113 1420 752 
Q 1681 391 2138 391 
Q 2594 391 2855 752 
Q 3116 1113 3116 1747 
z
" transform="scale(0.015625)"/>
      <path id="DejaVuSans-6c" d="M 603 4863 
L 1178 4863 
L 1178 0 
L 603 0 
L 603 4863 
z
" transform="scale(0.015625)"/>
      <path id="DejaVuSans-65" d="M 3597 1894 
L 3597 1613 
L 953 1613 
Q 991 1019 1311 708 
Q 1631 397 2203 397 
Q 2534 397 2845 478 
Q 3156 559 3463 722 
L 3463 178 
Q 3153 47 2828 -22 
Q 2503 -91 2169 -91 
Q 1331 -91 842 396 
Q 353 884 353 1716 
Q 353 2575 817 3079 
Q 1281 3584 2069 3584 
Q 2775 3584 3186 3129 
Q 3597 2675 3597 1894 
z
M 3022 2063 
Q 3016 2534 2758 2815 
Q 2500 3097 2075 3097 
Q 1594 3097 1305 2825 
Q 1016 2553 972 2059 
L 3022 2063 
z
" transform="scale(0.015625)"/>
      <path id="DejaVuSans-36" d="M 2113 2584 
Q 1688 2584 1439 2293 
Q 1191 2003 1191 1497 
Q 1191 994 1439 701 
Q 1688 409 2113 409 
Q 2538 409 2786 701 
Q 3034 994 3034 1497 
Q 3034 2003 2786 2293 
Q 2538 2584 2113 2584 
z
M 3366 4563 
L 3366 3988 
Q 3128 4100 2886 4159 
Q 2644 4219 2406 4219 
Q 1781 4219 1451 3797 
Q 1122 3375 1075 2522 
Q 1259 2794 1537 2939 
Q 1816 3084 2150 3084 
Q 2853 3084 3261 2657 
Q 3669 2231 3669 1497 
Q 3669 778 3244 343 
Q 2819 -91 2113 -91 
Q 1303 -91 875 529 
Q 447 1150 447 2328 
Q 447 3434 972 4092 
Q 1497 4750 2381 4750 
Q 2619 4750 2861 4703 
Q 3103 4656 3366 4563 
z
" transform="scale(0.015625)"/>
     </defs>
     <use xlink:href="#DejaVuSans-73"/>
     <use xlink:href="#DejaVuSans-61" x="52.099609"/>
     <use xlink:href="#DejaVuSans-6d" x="113.378906"/>
     <use xlink:href="#DejaVuSans-70" x="210.791016"/>
     <use xlink:href="#DejaVuSans-6c" x="274.267578"/>
     <use xlink:href="#DejaVuSans-65" x="302.050781"/>
     <use xlink:href="#DejaVuSans-73" x="363.574219"/>
     <use xlink:href="#DejaVuSans-20" x="415.673828"/>
     <use xlink:href="#DejaVuSans-3d" x="447.460938"/>
     <use xlink:href="#DejaVuSans-20" x="531.25"/>
     <use xlink:href="#DejaVuSans-36" x="563.037109"/>
    </g>
    <!-- value = [6, 0] -->
    <g transform="translate(355.151328 794.727209)scale(0.155814 -0.155814)">
     <defs>
      <path id="DejaVuSans-76" d="M 191 3500 
L 800 3500 
L 1894 563 
L 2988 3500 
L 3597 3500 
L 2284 0 
L 1503 0 
L 191 3500 
z
" transform="scale(0.015625)"/>
      <path id="DejaVuSans-75" d="M 544 1381 
L 544 3500 
L 1119 3500 
L 1119 1403 
Q 1119 906 1312 657 
Q 1506 409 1894 409 
Q 2359 409 2629 706 
Q 2900 1003 2900 1516 
L 2900 3500 
L 3475 3500 
L 3475 0 
L 2900 0 
L 2900 538 
Q 2691 219 2414 64 
Q 2138 -91 1772 -91 
Q 1169 -91 856 284 
Q 544 659 544 1381 
z
M 1991 3584 
L 1991 3584 
z
" transform="scale(0.015625)"/>
      <path id="DejaVuSans-5b" d="M 550 4863 
L 1875 4863 
L 1875 4416 
L 1125 4416 
L 1125 -397 
L 1875 -397 
L 1875 -844 
L 550 -844 
L 550 4863 
z
" transform="scale(0.015625)"/>
      <path id="DejaVuSans-2c" d="M 750 794 
L 1409 794 
L 1409 256 
L 897 -744 
L 494 -744 
L 750 256 
L 750 794 
z
" transform="scale(0.015625)"/>
      <path id="DejaVuSans-5d" d="M 1947 4863 
L 1947 -844 
L 622 -844 
L 622 -397 
L 1369 -397 
L 1369 4416 
L 622 4416 
L 622 4863 
L 1947 4863 
z
" transform="scale(0.015625)"/>
     </defs>
     <use xlink:href="#DejaVuSans-76"/>
     <use xlink:href="#DejaVuSans-61" x="59.179688"/>
     <use xlink:href="#DejaVuSans-6c" x="120.458984"/>
     <use xlink:href="#DejaVuSans-75" x="148.242188"/>
     <use xlink:href="#DejaVuSans-65" x="211.621094"/>
     <use xlink:href="#DejaVuSans-20" x="273.144531"/>
     <use xlink:href="#DejaVuSans-3d" x="304.931641"/>
     <use xlink:href="#DejaVuSans-20" x="388.720703"/>
     <use xlink:href="#DejaVuSans-5b" x="420.507812"/>
     <use xlink:href="#DejaVuSans-36" x="459.521484"/>
     <use xlink:href="#DejaVuSans-2c" x="523.144531"/>
     <use xlink:href="#DejaVuSans-20" x="554.931641"/>
     <use xlink:href="#DejaVuSans-30" x="586.71875"/>
     <use xlink:href="#DejaVuSans-5d" x="650.341797"/>
    </g>
   </g>
   <g id="patch_4">
    <path d="M 545.512856 738.663996 
Q 517.903691 697.060251 489.676318 654.524937 
" style="fill: none; stroke: #000000; stroke-linecap: round"/>
    <path d="M 544.663154 731.747796 
L 545.512856 738.663996 
L 539.470075 735.194038 
" style="fill: none; stroke: #000000; stroke-linecap: round"/>
   </g>
   <g id="text_2">
    <g id="patch_5">
     <path d="M 488.520059 804.200195 
L 648.05137 804.200195 
L 648.05137 741.759805 
L 488.520059 741.759805 
z
" style="fill: #74baed; stroke: #000000; stroke-linejoin: miter"/>
    </g>
    <!-- gini = 0.355 -->
    <g transform="translate(520.290227 759.831759)scale(0.155814 -0.155814)">
     <defs>
      <path id="DejaVuSans-33" d="M 2597 2516 
Q 3050 2419 3304 2112 
Q 3559 1806 3559 1356 
Q 3559 666 3084 287 
Q 2609 -91 1734 -91 
Q 1441 -91 1130 -33 
Q 819 25 488 141 
L 488 750 
Q 750 597 1062 519 
Q 1375 441 1716 441 
Q 2309 441 2620 675 
Q 2931 909 2931 1356 
Q 2931 1769 2642 2001 
Q 2353 2234 1838 2234 
L 1294 2234 
L 1294 2753 
L 1863 2753 
Q 2328 2753 2575 2939 
Q 2822 3125 2822 3475 
Q 2822 3834 2567 4026 
Q 2313 4219 1838 4219 
Q 1578 4219 1281 4162 
Q 984 4106 628 3988 
L 628 4550 
Q 988 4650 1302 4700 
Q 1616 4750 1894 4750 
Q 2613 4750 3031 4423 
Q 3450 4097 3450 3541 
Q 3450 3153 3228 2886 
Q 3006 2619 2597 2516 
z
" transform="scale(0.015625)"/>
      <path id="DejaVuSans-35" d="M 691 4666 
L 3169 4666 
L 3169 4134 
L 1269 4134 
L 1269 2991 
Q 1406 3038 1543 3061 
Q 1681 3084 1819 3084 
Q 2600 3084 3056 2656 
Q 3513 2228 3513 1497 
Q 3513 744 3044 326 
Q 2575 -91 1722 -91 
Q 1428 -91 1123 -41 
Q 819 9 494 109 
L 494 744 
Q 775 591 1075 516 
Q 1375 441 1709 441 
Q 2250 441 2565 725 
Q 2881 1009 2881 1497 
Q 2881 1984 2565 2268 
Q 2250 2553 1709 2553 
Q 1456 2553 1204 2497 
Q 953 2441 691 2322 
L 691 4666 
z
" transform="scale(0.015625)"/>
     </defs>
     <use xlink:href="#DejaVuSans-67"/>
     <use xlink:href="#DejaVuSans-69" x="63.476562"/>
     <use xlink:href="#DejaVuSans-6e" x="91.259766"/>
     <use xlink:href="#DejaVuSans-69" x="154.638672"/>
     <use xlink:href="#DejaVuSans-20" x="182.421875"/>
     <use xlink:href="#DejaVuSans-3d" x="214.208984"/>
     <use xlink:href="#DejaVuSans-20" x="297.998047"/>
     <use xlink:href="#DejaVuSans-30" x="329.785156"/>
     <use xlink:href="#DejaVuSans-2e" x="393.408203"/>
     <use xlink:href="#DejaVuSans-33" x="425.195312"/>
     <use xlink:href="#DejaVuSans-35" x="488.818359"/>
     <use xlink:href="#DejaVuSans-35" x="552.441406"/>
    </g>
    <!-- samples = 455 -->
    <g transform="translate(509.551256 777.279484)scale(0.155814 -0.155814)">
     <defs>
      <path id="DejaVuSans-34" d="M 2419 4116 
L 825 1625 
L 2419 1625 
L 2419 4116 
z
M 2253 4666 
L 3047 4666 
L 3047 1625 
L 3713 1625 
L 3713 1100 
L 3047 1100 
L 3047 0 
L 2419 0 
L 2419 1100 
L 313 1100 
L 313 1709 
L 2253 4666 
z
" transform="scale(0.015625)"/>
     </defs>
     <use xlink:href="#DejaVuSans-73"/>
     <use xlink:href="#DejaVuSans-61" x="52.099609"/>
     <use xlink:href="#DejaVuSans-6d" x="113.378906"/>
     <use xlink:href="#DejaVuSans-70" x="210.791016"/>
     <use xlink:href="#DejaVuSans-6c" x="274.267578"/>
     <use xlink:href="#DejaVuSans-65" x="302.050781"/>
     <use xlink:href="#DejaVuSans-73" x="363.574219"/>
     <use xlink:href="#DejaVuSans-20" x="415.673828"/>
     <use xlink:href="#DejaVuSans-3d" x="447.460938"/>
     <use xlink:href="#DejaVuSans-20" x="531.25"/>
     <use xlink:href="#DejaVuSans-34" x="563.037109"/>
     <use xlink:href="#DejaVuSans-35" x="626.660156"/>
     <use xlink:href="#DejaVuSans-35" x="690.283203"/>
    </g>
    <!-- value = [105, 350] -->
    <g transform="translate(494.752606 794.727209)scale(0.155814 -0.155814)">
     <defs>
      <path id="DejaVuSans-31" d="M 794 531 
L 1825 531 
L 1825 4091 
L 703 3866 
L 703 4441 
L 1819 4666 
L 2450 4666 
L 2450 531 
L 3481 531 
L 3481 0 
L 794 0 
L 794 531 
z
" transform="scale(0.015625)"/>
     </defs>
     <use xlink:href="#DejaVuSans-76"/>
     <use xlink:href="#DejaVuSans-61" x="59.179688"/>
     <use xlink:href="#DejaVuSans-6c" x="120.458984"/>
     <use xlink:href="#DejaVuSans-75" x="148.242188"/>
     <use xlink:href="#DejaVuSans-65" x="211.621094"/>
     <use xlink:href="#DejaVuSans-20" x="273.144531"/>
     <use xlink:href="#DejaVuSans-3d" x="304.931641"/>
     <use xlink:href="#DejaVuSans-20" x="388.720703"/>
     <use xlink:href="#DejaVuSans-5b" x="420.507812"/>
     <use xlink:href="#DejaVuSans-31" x="459.521484"/>
     <use xlink:href="#DejaVuSans-30" x="523.144531"/>
     <use xlink:href="#DejaVuSans-35" x="586.767578"/>
     <use xlink:href="#DejaVuSans-2c" x="650.390625"/>
     <use xlink:href="#DejaVuSans-20" x="682.177734"/>
     <use xlink:href="#DejaVuSans-33" x="713.964844"/>
     <use xlink:href="#DejaVuSans-35" x="777.587891"/>
     <use xlink:href="#DejaVuSans-30" x="841.210938"/>
     <use xlink:href="#DejaVuSans-5d" x="904.833984"/>
    </g>
   </g>
   <g id="patch_6">
    <path d="M 351.915715 618.543996 
Q 379.52488 576.940251 407.752254 534.404937 
" style="fill: none; stroke: #000000; stroke-linecap: round"/>
    <path d="M 357.958497 615.074038 
L 351.915715 618.543996 
L 352.765418 611.627796 
" style="fill: none; stroke: #000000; stroke-linecap: round"/>
   </g>
   <g id="text_3">
    <g id="patch_7">
     <path d="M 269.204494 684.080195 
L 389.08122 684.080195 
L 389.08122 621.639805 
L 269.204494 621.639805 
z
" style="fill: #e58139; stroke: #000000; stroke-linejoin: miter"/>
    </g>
    <!-- gini = 0.0 -->
    <g transform="translate(291.061017 639.711759)scale(0.155814 -0.155814)">
     <use xlink:href="#DejaVuSans-67"/>
     <use xlink:href="#DejaVuSans-69" x="63.476562"/>
     <use xlink:href="#DejaVuSans-6e" x="91.259766"/>
     <use xlink:href="#DejaVuSans-69" x="154.638672"/>
     <use xlink:href="#DejaVuSans-20" x="182.421875"/>
     <use xlink:href="#DejaVuSans-3d" x="214.208984"/>
     <use xlink:href="#DejaVuSans-20" x="297.998047"/>
     <use xlink:href="#DejaVuSans-30" x="329.785156"/>
     <use xlink:href="#DejaVuSans-2e" x="393.408203"/>
     <use xlink:href="#DejaVuSans-30" x="425.195312"/>
    </g>
    <!-- samples = 8 -->
    <g transform="translate(280.322045 657.159484)scale(0.155814 -0.155814)">
     <defs>
      <path id="DejaVuSans-38" d="M 2034 2216 
Q 1584 2216 1326 1975 
Q 1069 1734 1069 1313 
Q 1069 891 1326 650 
Q 1584 409 2034 409 
Q 2484 409 2743 651 
Q 3003 894 3003 1313 
Q 3003 1734 2745 1975 
Q 2488 2216 2034 2216 
z
M 1403 2484 
Q 997 2584 770 2862 
Q 544 3141 544 3541 
Q 544 4100 942 4425 
Q 1341 4750 2034 4750 
Q 2731 4750 3128 4425 
Q 3525 4100 3525 3541 
Q 3525 3141 3298 2862 
Q 3072 2584 2669 2484 
Q 3125 2378 3379 2068 
Q 3634 1759 3634 1313 
Q 3634 634 3220 271 
Q 2806 -91 2034 -91 
Q 1263 -91 848 271 
Q 434 634 434 1313 
Q 434 1759 690 2068 
Q 947 2378 1403 2484 
z
M 1172 3481 
Q 1172 3119 1398 2916 
Q 1625 2713 2034 2713 
Q 2441 2713 2670 2916 
Q 2900 3119 2900 3481 
Q 2900 3844 2670 4047 
Q 2441 4250 2034 4250 
Q 1625 4250 1398 4047 
Q 1172 3844 1172 3481 
z
" transform="scale(0.015625)"/>
     </defs>
     <use xlink:href="#DejaVuSans-73"/>
     <use xlink:href="#DejaVuSans-61" x="52.099609"/>
     <use xlink:href="#DejaVuSans-6d" x="113.378906"/>
     <use xlink:href="#DejaVuSans-70" x="210.791016"/>
     <use xlink:href="#DejaVuSans-6c" x="274.267578"/>
     <use xlink:href="#DejaVuSans-65" x="302.050781"/>
     <use xlink:href="#DejaVuSans-73" x="363.574219"/>
     <use xlink:href="#DejaVuSans-20" x="415.673828"/>
     <use xlink:href="#DejaVuSans-3d" x="447.460938"/>
     <use xlink:href="#DejaVuSans-20" x="531.25"/>
     <use xlink:href="#DejaVuSans-38" x="563.037109"/>
    </g>
    <!-- value = [8, 0] -->
    <g transform="translate(275.437042 674.607209)scale(0.155814 -0.155814)">
     <use xlink:href="#DejaVuSans-76"/>
     <use xlink:href="#DejaVuSans-61" x="59.179688"/>
     <use xlink:href="#DejaVuSans-6c" x="120.458984"/>
     <use xlink:href="#DejaVuSans-75" x="148.242188"/>
     <use xlink:href="#DejaVuSans-65" x="211.621094"/>
     <use xlink:href="#DejaVuSans-20" x="273.144531"/>
     <use xlink:href="#DejaVuSans-3d" x="304.931641"/>
     <use xlink:href="#DejaVuSans-20" x="388.720703"/>
     <use xlink:href="#DejaVuSans-5b" x="420.507812"/>
     <use xlink:href="#DejaVuSans-38" x="459.521484"/>
     <use xlink:href="#DejaVuSans-2c" x="523.144531"/>
     <use xlink:href="#DejaVuSans-20" x="554.931641"/>
     <use xlink:href="#DejaVuSans-30" x="586.71875"/>
     <use xlink:href="#DejaVuSans-5d" x="650.341797"/>
    </g>
   </g>
   <g id="patch_8">
    <path d="M 460.008069 609.818395 
Q 435.293874 572.577027 409.961471 534.404092 
" style="fill: none; stroke: #000000; stroke-linecap: round"/>
    <path d="M 459.158366 602.902195 
L 460.008069 609.818395 
L 453.965287 606.348437 
" style="fill: none; stroke: #000000; stroke-linecap: round"/>
   </g>
   <g id="text_4">
    <g id="patch_9">
     <path d="M 408.805773 692.804058 
L 568.337084 692.804058 
L 568.337084 612.915942 
L 408.805773 612.915942 
z
" style="fill: #78bced; stroke: #000000; stroke-linejoin: miter"/>
    </g>
    <!-- X[45] &lt;= 1.5 -->
    <g transform="translate(436.843717 630.987896)scale(0.155814 -0.155814)">
     <defs>
      <path id="DejaVuSans-58" d="M 403 4666 
L 1081 4666 
L 2241 2931 
L 3406 4666 
L 4084 4666 
L 2584 2425 
L 4184 0 
L 3506 0 
L 2194 1984 
L 872 0 
L 191 0 
L 1856 2491 
L 403 4666 
z
" transform="scale(0.015625)"/>
      <path id="DejaVuSans-3c" d="M 4684 3150 
L 1459 2003 
L 4684 863 
L 4684 294 
L 678 1747 
L 678 2266 
L 4684 3719 
L 4684 3150 
z
" transform="scale(0.015625)"/>
     </defs>
     <use xlink:href="#DejaVuSans-58"/>
     <use xlink:href="#DejaVuSans-5b" x="68.505859"/>
     <use xlink:href="#DejaVuSans-34" x="107.519531"/>
     <use xlink:href="#DejaVuSans-35" x="171.142578"/>
     <use xlink:href="#DejaVuSans-5d" x="234.765625"/>
     <use xlink:href="#DejaVuSans-20" x="273.779297"/>
     <use xlink:href="#DejaVuSans-3c" x="305.566406"/>
     <use xlink:href="#DejaVuSans-3d" x="389.355469"/>
     <use xlink:href="#DejaVuSans-20" x="473.144531"/>
     <use xlink:href="#DejaVuSans-31" x="504.931641"/>
     <use xlink:href="#DejaVuSans-2e" x="568.554688"/>
     <use xlink:href="#DejaVuSans-35" x="600.341797"/>
    </g>
    <!-- gini = 0.366 -->
    <g transform="translate(440.575942 648.435621)scale(0.155814 -0.155814)">
     <use xlink:href="#DejaVuSans-67"/>
     <use xlink:href="#DejaVuSans-69" x="63.476562"/>
     <use xlink:href="#DejaVuSans-6e" x="91.259766"/>
     <use xlink:href="#DejaVuSans-69" x="154.638672"/>
     <use xlink:href="#DejaVuSans-20" x="182.421875"/>
     <use xlink:href="#DejaVuSans-3d" x="214.208984"/>
     <use xlink:href="#DejaVuSans-20" x="297.998047"/>
     <use xlink:href="#DejaVuSans-30" x="329.785156"/>
     <use xlink:href="#DejaVuSans-2e" x="393.408203"/>
     <use xlink:href="#DejaVuSans-33" x="425.195312"/>
     <use xlink:href="#DejaVuSans-36" x="488.818359"/>
     <use xlink:href="#DejaVuSans-36" x="552.441406"/>
    </g>
    <!-- samples = 461 -->
    <g transform="translate(429.83697 665.883347)scale(0.155814 -0.155814)">
     <use xlink:href="#DejaVuSans-73"/>
     <use xlink:href="#DejaVuSans-61" x="52.099609"/>
     <use xlink:href="#DejaVuSans-6d" x="113.378906"/>
     <use xlink:href="#DejaVuSans-70" x="210.791016"/>
     <use xlink:href="#DejaVuSans-6c" x="274.267578"/>
     <use xlink:href="#DejaVuSans-65" x="302.050781"/>
     <use xlink:href="#DejaVuSans-73" x="363.574219"/>
     <use xlink:href="#DejaVuSans-20" x="415.673828"/>
     <use xlink:href="#DejaVuSans-3d" x="447.460938"/>
     <use xlink:href="#DejaVuSans-20" x="531.25"/>
     <use xlink:href="#DejaVuSans-34" x="563.037109"/>
     <use xlink:href="#DejaVuSans-36" x="626.660156"/>
     <use xlink:href="#DejaVuSans-31" x="690.283203"/>
    </g>
    <!-- value = [111, 350] -->
    <g transform="translate(415.038321 683.331072)scale(0.155814 -0.155814)">
     <use xlink:href="#DejaVuSans-76"/>
     <use xlink:href="#DejaVuSans-61" x="59.179688"/>
     <use xlink:href="#DejaVuSans-6c" x="120.458984"/>
     <use xlink:href="#DejaVuSans-75" x="148.242188"/>
     <use xlink:href="#DejaVuSans-65" x="211.621094"/>
     <use xlink:href="#DejaVuSans-20" x="273.144531"/>
     <use xlink:href="#DejaVuSans-3d" x="304.931641"/>
     <use xlink:href="#DejaVuSans-20" x="388.720703"/>
     <use xlink:href="#DejaVuSans-5b" x="420.507812"/>
     <use xlink:href="#DejaVuSans-31" x="459.521484"/>
     <use xlink:href="#DejaVuSans-31" x="523.144531"/>
     <use xlink:href="#DejaVuSans-31" x="586.767578"/>
     <use xlink:href="#DejaVuSans-2c" x="650.390625"/>
     <use xlink:href="#DejaVuSans-20" x="682.177734"/>
     <use xlink:href="#DejaVuSans-33" x="713.964844"/>
     <use xlink:href="#DejaVuSans-35" x="777.587891"/>
     <use xlink:href="#DejaVuSans-30" x="841.210938"/>
     <use xlink:href="#DejaVuSans-5d" x="904.833984"/>
    </g>
   </g>
   <g id="patch_10">
    <path d="M 272.20143 498.423996 
Q 299.810594 456.820251 328.037968 414.284937 
" style="fill: none; stroke: #000000; stroke-linecap: round"/>
    <path d="M 278.244211 494.954038 
L 272.20143 498.423996 
L 273.051132 491.507796 
" style="fill: none; stroke: #000000; stroke-linecap: round"/>
   </g>
   <g id="text_5">
    <g id="patch_11">
     <path d="M 189.490208 563.960195 
L 309.366934 563.960195 
L 309.366934 501.519805 
L 189.490208 501.519805 
z
" style="fill: #e58139; stroke: #000000; stroke-linejoin: miter"/>
    </g>
    <!-- gini = 0.0 -->
    <g transform="translate(211.346731 519.591759)scale(0.155814 -0.155814)">
     <use xlink:href="#DejaVuSans-67"/>
     <use xlink:href="#DejaVuSans-69" x="63.476562"/>
     <use xlink:href="#DejaVuSans-6e" x="91.259766"/>
     <use xlink:href="#DejaVuSans-69" x="154.638672"/>
     <use xlink:href="#DejaVuSans-20" x="182.421875"/>
     <use xlink:href="#DejaVuSans-3d" x="214.208984"/>
     <use xlink:href="#DejaVuSans-20" x="297.998047"/>
     <use xlink:href="#DejaVuSans-30" x="329.785156"/>
     <use xlink:href="#DejaVuSans-2e" x="393.408203"/>
     <use xlink:href="#DejaVuSans-30" x="425.195312"/>
    </g>
    <!-- samples = 9 -->
    <g transform="translate(200.607759 537.039484)scale(0.155814 -0.155814)">
     <defs>
      <path id="DejaVuSans-39" d="M 703 97 
L 703 672 
Q 941 559 1184 500 
Q 1428 441 1663 441 
Q 2288 441 2617 861 
Q 2947 1281 2994 2138 
Q 2813 1869 2534 1725 
Q 2256 1581 1919 1581 
Q 1219 1581 811 2004 
Q 403 2428 403 3163 
Q 403 3881 828 4315 
Q 1253 4750 1959 4750 
Q 2769 4750 3195 4129 
Q 3622 3509 3622 2328 
Q 3622 1225 3098 567 
Q 2575 -91 1691 -91 
Q 1453 -91 1209 -44 
Q 966 3 703 97 
z
M 1959 2075 
Q 2384 2075 2632 2365 
Q 2881 2656 2881 3163 
Q 2881 3666 2632 3958 
Q 2384 4250 1959 4250 
Q 1534 4250 1286 3958 
Q 1038 3666 1038 3163 
Q 1038 2656 1286 2365 
Q 1534 2075 1959 2075 
z
" transform="scale(0.015625)"/>
     </defs>
     <use xlink:href="#DejaVuSans-73"/>
     <use xlink:href="#DejaVuSans-61" x="52.099609"/>
     <use xlink:href="#DejaVuSans-6d" x="113.378906"/>
     <use xlink:href="#DejaVuSans-70" x="210.791016"/>
     <use xlink:href="#DejaVuSans-6c" x="274.267578"/>
     <use xlink:href="#DejaVuSans-65" x="302.050781"/>
     <use xlink:href="#DejaVuSans-73" x="363.574219"/>
     <use xlink:href="#DejaVuSans-20" x="415.673828"/>
     <use xlink:href="#DejaVuSans-3d" x="447.460938"/>
     <use xlink:href="#DejaVuSans-20" x="531.25"/>
     <use xlink:href="#DejaVuSans-39" x="563.037109"/>
    </g>
    <!-- value = [9, 0] -->
    <g transform="translate(195.722756 554.487209)scale(0.155814 -0.155814)">
     <use xlink:href="#DejaVuSans-76"/>
     <use xlink:href="#DejaVuSans-61" x="59.179688"/>
     <use xlink:href="#DejaVuSans-6c" x="120.458984"/>
     <use xlink:href="#DejaVuSans-75" x="148.242188"/>
     <use xlink:href="#DejaVuSans-65" x="211.621094"/>
     <use xlink:href="#DejaVuSans-20" x="273.144531"/>
     <use xlink:href="#DejaVuSans-3d" x="304.931641"/>
     <use xlink:href="#DejaVuSans-20" x="388.720703"/>
     <use xlink:href="#DejaVuSans-5b" x="420.507812"/>
     <use xlink:href="#DejaVuSans-39" x="459.521484"/>
     <use xlink:href="#DejaVuSans-2c" x="523.144531"/>
     <use xlink:href="#DejaVuSans-20" x="554.931641"/>
     <use xlink:href="#DejaVuSans-30" x="586.71875"/>
     <use xlink:href="#DejaVuSans-5d" x="650.341797"/>
    </g>
   </g>
   <g id="patch_12">
    <path d="M 380.293783 489.698395 
Q 355.579589 452.457027 330.247185 414.284092 
" style="fill: none; stroke: #000000; stroke-linecap: round"/>
    <path d="M 379.444081 482.782195 
L 380.293783 489.698395 
L 374.251002 486.228437 
" style="fill: none; stroke: #000000; stroke-linecap: round"/>
   </g>
   <g id="text_6">
    <g id="patch_13">
     <path d="M 329.091487 572.684058 
L 488.622798 572.684058 
L 488.622798 492.795942 
L 329.091487 492.795942 
z
" style="fill: #7cbeee; stroke: #000000; stroke-linejoin: miter"/>
    </g>
    <!-- X[36] &lt;= 1.5 -->
    <g transform="translate(357.129431 510.867896)scale(0.155814 -0.155814)">
     <use xlink:href="#DejaVuSans-58"/>
     <use xlink:href="#DejaVuSans-5b" x="68.505859"/>
     <use xlink:href="#DejaVuSans-33" x="107.519531"/>
     <use xlink:href="#DejaVuSans-36" x="171.142578"/>
     <use xlink:href="#DejaVuSans-5d" x="234.765625"/>
     <use xlink:href="#DejaVuSans-20" x="273.779297"/>
     <use xlink:href="#DejaVuSans-3c" x="305.566406"/>
     <use xlink:href="#DejaVuSans-3d" x="389.355469"/>
     <use xlink:href="#DejaVuSans-20" x="473.144531"/>
     <use xlink:href="#DejaVuSans-31" x="504.931641"/>
     <use xlink:href="#DejaVuSans-2e" x="568.554688"/>
     <use xlink:href="#DejaVuSans-35" x="600.341797"/>
    </g>
    <!-- gini = 0.379 -->
    <g transform="translate(360.861656 528.315621)scale(0.155814 -0.155814)">
     <defs>
      <path id="DejaVuSans-37" d="M 525 4666 
L 3525 4666 
L 3525 4397 
L 1831 0 
L 1172 0 
L 2766 4134 
L 525 4134 
L 525 4666 
z
" transform="scale(0.015625)"/>
     </defs>
     <use xlink:href="#DejaVuSans-67"/>
     <use xlink:href="#DejaVuSans-69" x="63.476562"/>
     <use xlink:href="#DejaVuSans-6e" x="91.259766"/>
     <use xlink:href="#DejaVuSans-69" x="154.638672"/>
     <use xlink:href="#DejaVuSans-20" x="182.421875"/>
     <use xlink:href="#DejaVuSans-3d" x="214.208984"/>
     <use xlink:href="#DejaVuSans-20" x="297.998047"/>
     <use xlink:href="#DejaVuSans-30" x="329.785156"/>
     <use xlink:href="#DejaVuSans-2e" x="393.408203"/>
     <use xlink:href="#DejaVuSans-33" x="425.195312"/>
     <use xlink:href="#DejaVuSans-37" x="488.818359"/>
     <use xlink:href="#DejaVuSans-39" x="552.441406"/>
    </g>
    <!-- samples = 469 -->
    <g transform="translate(350.122684 545.763347)scale(0.155814 -0.155814)">
     <use xlink:href="#DejaVuSans-73"/>
     <use xlink:href="#DejaVuSans-61" x="52.099609"/>
     <use xlink:href="#DejaVuSans-6d" x="113.378906"/>
     <use xlink:href="#DejaVuSans-70" x="210.791016"/>
     <use xlink:href="#DejaVuSans-6c" x="274.267578"/>
     <use xlink:href="#DejaVuSans-65" x="302.050781"/>
     <use xlink:href="#DejaVuSans-73" x="363.574219"/>
     <use xlink:href="#DejaVuSans-20" x="415.673828"/>
     <use xlink:href="#DejaVuSans-3d" x="447.460938"/>
     <use xlink:href="#DejaVuSans-20" x="531.25"/>
     <use xlink:href="#DejaVuSans-34" x="563.037109"/>
     <use xlink:href="#DejaVuSans-36" x="626.660156"/>
     <use xlink:href="#DejaVuSans-39" x="690.283203"/>
    </g>
    <!-- value = [119, 350] -->
    <g transform="translate(335.324035 563.211072)scale(0.155814 -0.155814)">
     <use xlink:href="#DejaVuSans-76"/>
     <use xlink:href="#DejaVuSans-61" x="59.179688"/>
     <use xlink:href="#DejaVuSans-6c" x="120.458984"/>
     <use xlink:href="#DejaVuSans-75" x="148.242188"/>
     <use xlink:href="#DejaVuSans-65" x="211.621094"/>
     <use xlink:href="#DejaVuSans-20" x="273.144531"/>
     <use xlink:href="#DejaVuSans-3d" x="304.931641"/>
     <use xlink:href="#DejaVuSans-20" x="388.720703"/>
     <use xlink:href="#DejaVuSans-5b" x="420.507812"/>
     <use xlink:href="#DejaVuSans-31" x="459.521484"/>
     <use xlink:href="#DejaVuSans-31" x="523.144531"/>
     <use xlink:href="#DejaVuSans-39" x="586.767578"/>
     <use xlink:href="#DejaVuSans-2c" x="650.390625"/>
     <use xlink:href="#DejaVuSans-20" x="682.177734"/>
     <use xlink:href="#DejaVuSans-33" x="713.964844"/>
     <use xlink:href="#DejaVuSans-35" x="777.587891"/>
     <use xlink:href="#DejaVuSans-30" x="841.210938"/>
     <use xlink:href="#DejaVuSans-5d" x="904.833984"/>
    </g>
   </g>
   <g id="patch_14">
    <path d="M 192.487144 378.303996 
Q 220.096309 336.700251 248.323682 294.164937 
" style="fill: none; stroke: #000000; stroke-linecap: round"/>
    <path d="M 198.529925 374.834038 
L 192.487144 378.303996 
L 193.336846 371.387796 
" style="fill: none; stroke: #000000; stroke-linecap: round"/>
   </g>
   <g id="text_7">
    <g id="patch_15">
     <path d="M 104.8191 443.840195 
L 234.609472 443.840195 
L 234.609472 381.399805 
L 104.8191 381.399805 
z
" style="fill: #e58139; stroke: #000000; stroke-linejoin: miter"/>
    </g>
    <!-- gini = 0.0 -->
    <g transform="translate(131.632445 399.471759)scale(0.155814 -0.155814)">
     <use xlink:href="#DejaVuSans-67"/>
     <use xlink:href="#DejaVuSans-69" x="63.476562"/>
     <use xlink:href="#DejaVuSans-6e" x="91.259766"/>
     <use xlink:href="#DejaVuSans-69" x="154.638672"/>
     <use xlink:href="#DejaVuSans-20" x="182.421875"/>
     <use xlink:href="#DejaVuSans-3d" x="214.208984"/>
     <use xlink:href="#DejaVuSans-20" x="297.998047"/>
     <use xlink:href="#DejaVuSans-30" x="329.785156"/>
     <use xlink:href="#DejaVuSans-2e" x="393.408203"/>
     <use xlink:href="#DejaVuSans-30" x="425.195312"/>
    </g>
    <!-- samples = 11 -->
    <g transform="translate(115.93665 416.919484)scale(0.155814 -0.155814)">
     <use xlink:href="#DejaVuSans-73"/>
     <use xlink:href="#DejaVuSans-61" x="52.099609"/>
     <use xlink:href="#DejaVuSans-6d" x="113.378906"/>
     <use xlink:href="#DejaVuSans-70" x="210.791016"/>
     <use xlink:href="#DejaVuSans-6c" x="274.267578"/>
     <use xlink:href="#DejaVuSans-65" x="302.050781"/>
     <use xlink:href="#DejaVuSans-73" x="363.574219"/>
     <use xlink:href="#DejaVuSans-20" x="415.673828"/>
     <use xlink:href="#DejaVuSans-3d" x="447.460938"/>
     <use xlink:href="#DejaVuSans-20" x="531.25"/>
     <use xlink:href="#DejaVuSans-31" x="563.037109"/>
     <use xlink:href="#DejaVuSans-31" x="626.660156"/>
    </g>
    <!-- value = [11, 0] -->
    <g transform="translate(111.051647 434.367209)scale(0.155814 -0.155814)">
     <use xlink:href="#DejaVuSans-76"/>
     <use xlink:href="#DejaVuSans-61" x="59.179688"/>
     <use xlink:href="#DejaVuSans-6c" x="120.458984"/>
     <use xlink:href="#DejaVuSans-75" x="148.242188"/>
     <use xlink:href="#DejaVuSans-65" x="211.621094"/>
     <use xlink:href="#DejaVuSans-20" x="273.144531"/>
     <use xlink:href="#DejaVuSans-3d" x="304.931641"/>
     <use xlink:href="#DejaVuSans-20" x="388.720703"/>
     <use xlink:href="#DejaVuSans-5b" x="420.507812"/>
     <use xlink:href="#DejaVuSans-31" x="459.521484"/>
     <use xlink:href="#DejaVuSans-31" x="523.144531"/>
     <use xlink:href="#DejaVuSans-2c" x="586.767578"/>
     <use xlink:href="#DejaVuSans-20" x="618.554688"/>
     <use xlink:href="#DejaVuSans-30" x="650.341797"/>
     <use xlink:href="#DejaVuSans-5d" x="713.964844"/>
    </g>
   </g>
   <g id="patch_16">
    <path d="M 300.579497 369.578395 
Q 275.865303 332.337027 250.5329 294.164092 
" style="fill: none; stroke: #000000; stroke-linecap: round"/>
    <path d="M 299.729795 362.662195 
L 300.579497 369.578395 
L 294.536716 366.108437 
" style="fill: none; stroke: #000000; stroke-linecap: round"/>
   </g>
   <g id="text_8">
    <g id="patch_17">
     <path d="M 249.377202 452.564058 
L 408.908513 452.564058 
L 408.908513 372.675942 
L 249.377202 372.675942 
z
" style="fill: #81c1ef; stroke: #000000; stroke-linejoin: miter"/>
    </g>
    <!-- X[38] &lt;= 1.5 -->
    <g transform="translate(277.415145 390.747896)scale(0.155814 -0.155814)">
     <use xlink:href="#DejaVuSans-58"/>
     <use xlink:href="#DejaVuSans-5b" x="68.505859"/>
     <use xlink:href="#DejaVuSans-33" x="107.519531"/>
     <use xlink:href="#DejaVuSans-38" x="171.142578"/>
     <use xlink:href="#DejaVuSans-5d" x="234.765625"/>
     <use xlink:href="#DejaVuSans-20" x="273.779297"/>
     <use xlink:href="#DejaVuSans-3c" x="305.566406"/>
     <use xlink:href="#DejaVuSans-3d" x="389.355469"/>
     <use xlink:href="#DejaVuSans-20" x="473.144531"/>
     <use xlink:href="#DejaVuSans-31" x="504.931641"/>
     <use xlink:href="#DejaVuSans-2e" x="568.554688"/>
     <use xlink:href="#DejaVuSans-35" x="600.341797"/>
    </g>
    <!-- gini = 0.392 -->
    <g transform="translate(281.14737 408.195621)scale(0.155814 -0.155814)">
     <defs>
      <path id="DejaVuSans-32" d="M 1228 531 
L 3431 531 
L 3431 0 
L 469 0 
L 469 531 
Q 828 903 1448 1529 
Q 2069 2156 2228 2338 
Q 2531 2678 2651 2914 
Q 2772 3150 2772 3378 
Q 2772 3750 2511 3984 
Q 2250 4219 1831 4219 
Q 1534 4219 1204 4116 
Q 875 4013 500 3803 
L 500 4441 
Q 881 4594 1212 4672 
Q 1544 4750 1819 4750 
Q 2544 4750 2975 4387 
Q 3406 4025 3406 3419 
Q 3406 3131 3298 2873 
Q 3191 2616 2906 2266 
Q 2828 2175 2409 1742 
Q 1991 1309 1228 531 
z
" transform="scale(0.015625)"/>
     </defs>
     <use xlink:href="#DejaVuSans-67"/>
     <use xlink:href="#DejaVuSans-69" x="63.476562"/>
     <use xlink:href="#DejaVuSans-6e" x="91.259766"/>
     <use xlink:href="#DejaVuSans-69" x="154.638672"/>
     <use xlink:href="#DejaVuSans-20" x="182.421875"/>
     <use xlink:href="#DejaVuSans-3d" x="214.208984"/>
     <use xlink:href="#DejaVuSans-20" x="297.998047"/>
     <use xlink:href="#DejaVuSans-30" x="329.785156"/>
     <use xlink:href="#DejaVuSans-2e" x="393.408203"/>
     <use xlink:href="#DejaVuSans-33" x="425.195312"/>
     <use xlink:href="#DejaVuSans-39" x="488.818359"/>
     <use xlink:href="#DejaVuSans-32" x="552.441406"/>
    </g>
    <!-- samples = 478 -->
    <g transform="translate(270.408398 425.643347)scale(0.155814 -0.155814)">
     <use xlink:href="#DejaVuSans-73"/>
     <use xlink:href="#DejaVuSans-61" x="52.099609"/>
     <use xlink:href="#DejaVuSans-6d" x="113.378906"/>
     <use xlink:href="#DejaVuSans-70" x="210.791016"/>
     <use xlink:href="#DejaVuSans-6c" x="274.267578"/>
     <use xlink:href="#DejaVuSans-65" x="302.050781"/>
     <use xlink:href="#DejaVuSans-73" x="363.574219"/>
     <use xlink:href="#DejaVuSans-20" x="415.673828"/>
     <use xlink:href="#DejaVuSans-3d" x="447.460938"/>
     <use xlink:href="#DejaVuSans-20" x="531.25"/>
     <use xlink:href="#DejaVuSans-34" x="563.037109"/>
     <use xlink:href="#DejaVuSans-37" x="626.660156"/>
     <use xlink:href="#DejaVuSans-38" x="690.283203"/>
    </g>
    <!-- value = [128, 350] -->
    <g transform="translate(255.609749 443.091072)scale(0.155814 -0.155814)">
     <use xlink:href="#DejaVuSans-76"/>
     <use xlink:href="#DejaVuSans-61" x="59.179688"/>
     <use xlink:href="#DejaVuSans-6c" x="120.458984"/>
     <use xlink:href="#DejaVuSans-75" x="148.242188"/>
     <use xlink:href="#DejaVuSans-65" x="211.621094"/>
     <use xlink:href="#DejaVuSans-20" x="273.144531"/>
     <use xlink:href="#DejaVuSans-3d" x="304.931641"/>
     <use xlink:href="#DejaVuSans-20" x="388.720703"/>
     <use xlink:href="#DejaVuSans-5b" x="420.507812"/>
     <use xlink:href="#DejaVuSans-31" x="459.521484"/>
     <use xlink:href="#DejaVuSans-32" x="523.144531"/>
     <use xlink:href="#DejaVuSans-38" x="586.767578"/>
     <use xlink:href="#DejaVuSans-2c" x="650.390625"/>
     <use xlink:href="#DejaVuSans-20" x="682.177734"/>
     <use xlink:href="#DejaVuSans-33" x="713.964844"/>
     <use xlink:href="#DejaVuSans-35" x="777.587891"/>
     <use xlink:href="#DejaVuSans-30" x="841.210938"/>
     <use xlink:href="#DejaVuSans-5d" x="904.833984"/>
    </g>
   </g>
   <g id="patch_18">
    <path d="M 277.991931 249.458395 
Q 302.706126 212.217027 328.038529 174.044092 
" style="fill: none; stroke: #000000; stroke-linecap: round"/>
    <path d="M 284.034713 245.988437 
L 277.991931 249.458395 
L 278.841634 242.542195 
" style="fill: none; stroke: #000000; stroke-linecap: round"/>
   </g>
   <g id="text_9">
    <g id="patch_19">
     <path d="M 169.662916 332.444058 
L 329.194227 332.444058 
L 329.194227 252.555942 
L 169.662916 252.555942 
z
" style="fill: #88c4ef; stroke: #000000; stroke-linejoin: miter"/>
    </g>
    <!-- X[44] &lt;= 1.5 -->
    <g transform="translate(197.70086 270.627896)scale(0.155814 -0.155814)">
     <use xlink:href="#DejaVuSans-58"/>
     <use xlink:href="#DejaVuSans-5b" x="68.505859"/>
     <use xlink:href="#DejaVuSans-34" x="107.519531"/>
     <use xlink:href="#DejaVuSans-34" x="171.142578"/>
     <use xlink:href="#DejaVuSans-5d" x="234.765625"/>
     <use xlink:href="#DejaVuSans-20" x="273.779297"/>
     <use xlink:href="#DejaVuSans-3c" x="305.566406"/>
     <use xlink:href="#DejaVuSans-3d" x="389.355469"/>
     <use xlink:href="#DejaVuSans-20" x="473.144531"/>
     <use xlink:href="#DejaVuSans-31" x="504.931641"/>
     <use xlink:href="#DejaVuSans-2e" x="568.554688"/>
     <use xlink:href="#DejaVuSans-35" x="600.341797"/>
    </g>
    <!-- gini = 0.407 -->
    <g transform="translate(201.433085 288.075621)scale(0.155814 -0.155814)">
     <use xlink:href="#DejaVuSans-67"/>
     <use xlink:href="#DejaVuSans-69" x="63.476562"/>
     <use xlink:href="#DejaVuSans-6e" x="91.259766"/>
     <use xlink:href="#DejaVuSans-69" x="154.638672"/>
     <use xlink:href="#DejaVuSans-20" x="182.421875"/>
     <use xlink:href="#DejaVuSans-3d" x="214.208984"/>
     <use xlink:href="#DejaVuSans-20" x="297.998047"/>
     <use xlink:href="#DejaVuSans-30" x="329.785156"/>
     <use xlink:href="#DejaVuSans-2e" x="393.408203"/>
     <use xlink:href="#DejaVuSans-34" x="425.195312"/>
     <use xlink:href="#DejaVuSans-30" x="488.818359"/>
     <use xlink:href="#DejaVuSans-37" x="552.441406"/>
    </g>
    <!-- samples = 489 -->
    <g transform="translate(190.694113 305.523347)scale(0.155814 -0.155814)">
     <use xlink:href="#DejaVuSans-73"/>
     <use xlink:href="#DejaVuSans-61" x="52.099609"/>
     <use xlink:href="#DejaVuSans-6d" x="113.378906"/>
     <use xlink:href="#DejaVuSans-70" x="210.791016"/>
     <use xlink:href="#DejaVuSans-6c" x="274.267578"/>
     <use xlink:href="#DejaVuSans-65" x="302.050781"/>
     <use xlink:href="#DejaVuSans-73" x="363.574219"/>
     <use xlink:href="#DejaVuSans-20" x="415.673828"/>
     <use xlink:href="#DejaVuSans-3d" x="447.460938"/>
     <use xlink:href="#DejaVuSans-20" x="531.25"/>
     <use xlink:href="#DejaVuSans-34" x="563.037109"/>
     <use xlink:href="#DejaVuSans-38" x="626.660156"/>
     <use xlink:href="#DejaVuSans-39" x="690.283203"/>
    </g>
    <!-- value = [139, 350] -->
    <g transform="translate(175.895464 322.971072)scale(0.155814 -0.155814)">
     <use xlink:href="#DejaVuSans-76"/>
     <use xlink:href="#DejaVuSans-61" x="59.179688"/>
     <use xlink:href="#DejaVuSans-6c" x="120.458984"/>
     <use xlink:href="#DejaVuSans-75" x="148.242188"/>
     <use xlink:href="#DejaVuSans-65" x="211.621094"/>
     <use xlink:href="#DejaVuSans-20" x="273.144531"/>
     <use xlink:href="#DejaVuSans-3d" x="304.931641"/>
     <use xlink:href="#DejaVuSans-20" x="388.720703"/>
     <use xlink:href="#DejaVuSans-5b" x="420.507812"/>
     <use xlink:href="#DejaVuSans-31" x="459.521484"/>
     <use xlink:href="#DejaVuSans-33" x="523.144531"/>
     <use xlink:href="#DejaVuSans-39" x="586.767578"/>
     <use xlink:href="#DejaVuSans-2c" x="650.390625"/>
     <use xlink:href="#DejaVuSans-20" x="682.177734"/>
     <use xlink:href="#DejaVuSans-33" x="713.964844"/>
     <use xlink:href="#DejaVuSans-35" x="777.587891"/>
     <use xlink:href="#DejaVuSans-30" x="841.210938"/>
     <use xlink:href="#DejaVuSans-5d" x="904.833984"/>
    </g>
   </g>
   <g id="patch_20">
    <path d="M 386.084285 258.183996 
Q 358.47512 216.580251 330.247746 174.044937 
" style="fill: none; stroke: #000000; stroke-linecap: round"/>
    <path d="M 385.234582 251.267796 
L 386.084285 258.183996 
L 380.041503 254.714038 
" style="fill: none; stroke: #000000; stroke-linecap: round"/>
   </g>
   <g id="text_10">
    <g id="patch_21">
     <path d="M 343.961957 323.720195 
L 473.752329 323.720195 
L 473.752329 261.279805 
L 343.961957 261.279805 
z
" style="fill: #e58139; stroke: #000000; stroke-linejoin: miter"/>
    </g>
    <!-- gini = 0.0 -->
    <g transform="translate(370.775302 279.351759)scale(0.155814 -0.155814)">
     <use xlink:href="#DejaVuSans-67"/>
     <use xlink:href="#DejaVuSans-69" x="63.476562"/>
     <use xlink:href="#DejaVuSans-6e" x="91.259766"/>
     <use xlink:href="#DejaVuSans-69" x="154.638672"/>
     <use xlink:href="#DejaVuSans-20" x="182.421875"/>
     <use xlink:href="#DejaVuSans-3d" x="214.208984"/>
     <use xlink:href="#DejaVuSans-20" x="297.998047"/>
     <use xlink:href="#DejaVuSans-30" x="329.785156"/>
     <use xlink:href="#DejaVuSans-2e" x="393.408203"/>
     <use xlink:href="#DejaVuSans-30" x="425.195312"/>
    </g>
    <!-- samples = 11 -->
    <g transform="translate(355.079507 296.799484)scale(0.155814 -0.155814)">
     <use xlink:href="#DejaVuSans-73"/>
     <use xlink:href="#DejaVuSans-61" x="52.099609"/>
     <use xlink:href="#DejaVuSans-6d" x="113.378906"/>
     <use xlink:href="#DejaVuSans-70" x="210.791016"/>
     <use xlink:href="#DejaVuSans-6c" x="274.267578"/>
     <use xlink:href="#DejaVuSans-65" x="302.050781"/>
     <use xlink:href="#DejaVuSans-73" x="363.574219"/>
     <use xlink:href="#DejaVuSans-20" x="415.673828"/>
     <use xlink:href="#DejaVuSans-3d" x="447.460938"/>
     <use xlink:href="#DejaVuSans-20" x="531.25"/>
     <use xlink:href="#DejaVuSans-31" x="563.037109"/>
     <use xlink:href="#DejaVuSans-31" x="626.660156"/>
    </g>
    <!-- value = [11, 0] -->
    <g transform="translate(350.194504 314.247209)scale(0.155814 -0.155814)">
     <use xlink:href="#DejaVuSans-76"/>
     <use xlink:href="#DejaVuSans-61" x="59.179688"/>
     <use xlink:href="#DejaVuSans-6c" x="120.458984"/>
     <use xlink:href="#DejaVuSans-75" x="148.242188"/>
     <use xlink:href="#DejaVuSans-65" x="211.621094"/>
     <use xlink:href="#DejaVuSans-20" x="273.144531"/>
     <use xlink:href="#DejaVuSans-3d" x="304.931641"/>
     <use xlink:href="#DejaVuSans-20" x="388.720703"/>
     <use xlink:href="#DejaVuSans-5b" x="420.507812"/>
     <use xlink:href="#DejaVuSans-31" x="459.521484"/>
     <use xlink:href="#DejaVuSans-31" x="523.144531"/>
     <use xlink:href="#DejaVuSans-2c" x="586.767578"/>
     <use xlink:href="#DejaVuSans-20" x="618.554688"/>
     <use xlink:href="#DejaVuSans-30" x="650.341797"/>
     <use xlink:href="#DejaVuSans-5d" x="713.964844"/>
    </g>
   </g>
   <g id="patch_22">
    <path d="M 329.142857 172.38 
Q 329.142857 172.38 329.142857 172.38 
" style="fill: none; stroke: #000000; stroke-linecap: round"/>
   </g>
   <g id="text_11">
    <g id="patch_23">
     <path d="M 249.377202 212.324058 
L 408.908513 212.324058 
L 408.908513 132.435942 
L 249.377202 132.435942 
z
" style="fill: #8ec7f0; stroke: #000000; stroke-linejoin: miter"/>
    </g>
    <!-- X[35] &lt;= 1.5 -->
    <g transform="translate(277.415145 150.507896)scale(0.155814 -0.155814)">
     <use xlink:href="#DejaVuSans-58"/>
     <use xlink:href="#DejaVuSans-5b" x="68.505859"/>
     <use xlink:href="#DejaVuSans-33" x="107.519531"/>
     <use xlink:href="#DejaVuSans-35" x="171.142578"/>
     <use xlink:href="#DejaVuSans-5d" x="234.765625"/>
     <use xlink:href="#DejaVuSans-20" x="273.779297"/>
     <use xlink:href="#DejaVuSans-3c" x="305.566406"/>
     <use xlink:href="#DejaVuSans-3d" x="389.355469"/>
     <use xlink:href="#DejaVuSans-20" x="473.144531"/>
     <use xlink:href="#DejaVuSans-31" x="504.931641"/>
     <use xlink:href="#DejaVuSans-2e" x="568.554688"/>
     <use xlink:href="#DejaVuSans-35" x="600.341797"/>
    </g>
    <!-- gini = 0.42 -->
    <g transform="translate(286.104193 167.955621)scale(0.155814 -0.155814)">
     <use xlink:href="#DejaVuSans-67"/>
     <use xlink:href="#DejaVuSans-69" x="63.476562"/>
     <use xlink:href="#DejaVuSans-6e" x="91.259766"/>
     <use xlink:href="#DejaVuSans-69" x="154.638672"/>
     <use xlink:href="#DejaVuSans-20" x="182.421875"/>
     <use xlink:href="#DejaVuSans-3d" x="214.208984"/>
     <use xlink:href="#DejaVuSans-20" x="297.998047"/>
     <use xlink:href="#DejaVuSans-30" x="329.785156"/>
     <use xlink:href="#DejaVuSans-2e" x="393.408203"/>
     <use xlink:href="#DejaVuSans-34" x="425.195312"/>
     <use xlink:href="#DejaVuSans-32" x="488.818359"/>
    </g>
    <!-- samples = 500 -->
    <g transform="translate(270.408398 185.403347)scale(0.155814 -0.155814)">
     <use xlink:href="#DejaVuSans-73"/>
     <use xlink:href="#DejaVuSans-61" x="52.099609"/>
     <use xlink:href="#DejaVuSans-6d" x="113.378906"/>
     <use xlink:href="#DejaVuSans-70" x="210.791016"/>
     <use xlink:href="#DejaVuSans-6c" x="274.267578"/>
     <use xlink:href="#DejaVuSans-65" x="302.050781"/>
     <use xlink:href="#DejaVuSans-73" x="363.574219"/>
     <use xlink:href="#DejaVuSans-20" x="415.673828"/>
     <use xlink:href="#DejaVuSans-3d" x="447.460938"/>
     <use xlink:href="#DejaVuSans-20" x="531.25"/>
     <use xlink:href="#DejaVuSans-35" x="563.037109"/>
     <use xlink:href="#DejaVuSans-30" x="626.660156"/>
     <use xlink:href="#DejaVuSans-30" x="690.283203"/>
    </g>
    <!-- value = [150, 350] -->
    <g transform="translate(255.609749 202.851072)scale(0.155814 -0.155814)">
     <use xlink:href="#DejaVuSans-76"/>
     <use xlink:href="#DejaVuSans-61" x="59.179688"/>
     <use xlink:href="#DejaVuSans-6c" x="120.458984"/>
     <use xlink:href="#DejaVuSans-75" x="148.242188"/>
     <use xlink:href="#DejaVuSans-65" x="211.621094"/>
     <use xlink:href="#DejaVuSans-20" x="273.144531"/>
     <use xlink:href="#DejaVuSans-3d" x="304.931641"/>
     <use xlink:href="#DejaVuSans-20" x="388.720703"/>
     <use xlink:href="#DejaVuSans-5b" x="420.507812"/>
     <use xlink:href="#DejaVuSans-31" x="459.521484"/>
     <use xlink:href="#DejaVuSans-35" x="523.144531"/>
     <use xlink:href="#DejaVuSans-30" x="586.767578"/>
     <use xlink:href="#DejaVuSans-2c" x="650.390625"/>
     <use xlink:href="#DejaVuSans-20" x="682.177734"/>
     <use xlink:href="#DejaVuSans-33" x="713.964844"/>
     <use xlink:href="#DejaVuSans-35" x="777.587891"/>
     <use xlink:href="#DejaVuSans-30" x="841.210938"/>
     <use xlink:href="#DejaVuSans-5d" x="904.833984"/>
    </g>
   </g>
  </g>
 </g>
</svg>
